<?xml version="1.0" standalone="no"?>
<!DOCTYPE svg PUBLIC "-//W3C//DTD SVG 20010904//EN"
 "http://www.w3.org/TR/2001/REC-SVG-20010904/DTD/svg10.dtd">
<svg version="1.0" xmlns="http://www.w3.org/2000/svg"
 width="700.000000pt" height="700.000000pt" viewBox="0 0 700.000000 700.000000"
 preserveAspectRatio="xMidYMid meet">
<metadata>
Created by potrace 1.14, written by Peter Selinger 2001-2017
</metadata>
<g transform="translate(0.000000,700.000000) scale(0.100000,-0.100000)"
fill="#000000" stroke="none">
<path d="M104 6891 c-23 -10 -54 -36 -70 -57 -25 -32 -29 -47 -29 -98 0 -94
54 -162 141 -180 16 -3 92 -19 169 -35 77 -17 151 -32 165 -34 14 -3 43 -10
65 -15 22 -6 54 -13 70 -15 108 -17 198 -55 252 -107 61 -58 81 -106 153 -360
22 -77 121 -418 189 -650 27 -91 77 -262 111 -380 34 -118 91 -312 125 -430
35 -118 93 -316 129 -440 35 -124 81 -281 101 -350 20 -69 39 -132 40 -140 2
-8 13 -44 23 -80 11 -36 41 -137 67 -225 25 -88 67 -230 92 -315 25 -85 49
-168 53 -185 5 -16 16 -54 25 -83 9 -30 15 -55 13 -56 -2 -2 -32 -20 -68 -41
-122 -72 -239 -210 -295 -345 -51 -126 -64 -321 -30 -440 9 -30 17 -59 18 -65
15 -66 122 -231 189 -290 104 -93 240 -165 338 -180 25 -4 49 -10 55 -13 18
-12 1985 -9 1985 3 2 92 11 224 19 274 6 36 9 66 8 68 -2 1 -451 4 -998 5
l-994 3 -65 31 c-79 37 -150 107 -188 184 -23 48 -27 67 -27 150 0 106 17 156
77 232 34 44 112 98 167 117 30 10 195 41 301 57 19 3 61 10 93 15 32 6 74 12
94 15 21 2 91 14 158 25 66 11 132 22 148 25 15 2 39 6 55 9 15 2 43 7 62 10
19 3 46 7 60 10 14 3 39 7 55 9 30 5 144 23 440 71 224 36 214 35 275 45 30 5
71 12 90 15 19 3 60 10 90 15 30 6 69 12 85 14 71 10 184 28 385 61 118 20
226 38 240 40 14 2 66 11 115 19 50 8 110 18 135 21 24 4 47 8 50 10 3 2 34 6
70 10 36 4 67 8 70 10 3 2 26 6 50 10 164 23 352 60 394 77 183 72 299 228
340 458 3 14 19 93 36 175 17 83 32 159 34 170 3 11 12 56 21 100 9 44 19 89
21 100 2 11 38 189 80 395 42 206 78 384 80 395 2 11 32 160 67 330 62 301 66
338 53 418 -19 119 -133 239 -252 268 -37 9 -617 12 -2384 13 l-2335 1 -57
200 c-117 406 -143 474 -216 565 -117 146 -255 225 -467 269 -98 20 -196 41
-385 82 -142 31 -178 33 -226 10z m5976 -1484 c0 -2 -9 -48 -21 -103 -22 -107
-115 -566 -134 -665 -2 -9 -13 -59 -24 -110 -11 -52 -22 -107 -25 -124 -3 -16
-28 -140 -55 -275 -28 -135 -52 -256 -55 -270 -2 -14 -16 -81 -30 -150 -33
-154 -54 -257 -60 -290 -17 -94 -76 -148 -181 -164 -22 -4 -78 -13 -125 -21
-47 -8 -103 -17 -125 -20 -22 -3 -49 -8 -61 -10 -12 -3 -39 -7 -60 -10 -21 -4
-68 -11 -104 -17 -36 -5 -78 -12 -95 -15 -26 -4 -217 -35 -295 -48 -14 -2 -43
-7 -65 -10 -22 -4 -78 -13 -125 -21 -47 -8 -101 -17 -120 -20 -19 -3 -132 -21
-250 -40 -118 -20 -226 -37 -240 -39 -14 -2 -79 -13 -145 -24 -66 -11 -138
-23 -160 -26 -22 -3 -65 -10 -95 -15 -30 -5 -68 -11 -85 -14 -58 -9 -120 -18
-136 -21 -9 -2 -74 -13 -145 -25 -176 -29 -185 -30 -214 -35 -55 -9 -227 -37
-255 -41 -16 -3 -55 -9 -85 -14 -30 -5 -73 -12 -95 -15 -22 -4 -47 -8 -57 -11
-9 -3 -19 -1 -22 4 -3 5 -30 94 -60 198 -58 198 -132 455 -236 809 -33 116
-99 343 -146 505 -47 162 -93 322 -104 355 -10 33 -46 157 -80 275 -51 176
-92 318 -146 503 -5 16 107 17 2255 17 1244 0 2261 -2 2261 -3z"/>
<path d="M4855 5160 c-92 -20 -156 -93 -157 -180 0 -19 32 -145 72 -280 40
-135 80 -274 90 -310 11 -36 42 -144 70 -240 28 -96 76 -261 107 -367 72 -249
106 -293 226 -295 58 -1 98 16 139 59 62 65 63 116 8 303 -22 74 -47 158 -55
185 -20 69 -266 908 -269 920 -2 6 -6 24 -11 40 -30 113 -126 185 -220 165z"/>
<path d="M2405 5152 c-74 -13 -121 -46 -152 -105 -26 -51 -22 -105 19 -242 21
-71 68 -231 104 -355 36 -124 84 -286 105 -360 22 -74 42 -143 44 -153 2 -10
15 -55 29 -100 22 -70 110 -370 165 -560 9 -32 29 -74 45 -94 121 -151 365
-34 325 157 -4 19 -39 143 -77 275 -39 132 -98 332 -130 445 -33 113 -77 261
-97 330 -96 329 -113 386 -118 405 -30 115 -73 246 -89 272 -32 53 -118 95
-173 85z"/>
<path d="M3162 5135 c-56 -26 -100 -87 -106 -148 -2 -20 16 -101 44 -198 26
-90 71 -245 99 -344 29 -99 66 -224 82 -277 16 -53 32 -105 34 -115 2 -10 49
-172 104 -361 117 -399 128 -422 228 -447 117 -30 232 57 233 176 0 20 -29
135 -64 255 -35 120 -106 361 -156 534 -50 173 -105 360 -121 415 -54 180 -68
229 -93 316 -13 48 -30 98 -36 110 -49 95 -151 129 -248 84z"/>
<path d="M4001 5150 c-75 -32 -123 -100 -123 -176 0 -25 12 -84 27 -132 15
-48 35 -116 45 -152 11 -36 30 -103 44 -150 71 -239 162 -553 231 -790 42
-146 81 -275 88 -288 63 -128 243 -140 322 -21 37 57 40 113 10 215 -30 101
-169 572 -201 684 -14 47 -54 186 -90 310 -114 393 -122 416 -156 450 -17 18
-43 36 -57 42 -39 15 -113 19 -140 8z"/>
<path d="M5717 2564 c-1 -1 -34 -5 -72 -8 -78 -7 -82 -8 -176 -30 -144 -33
-312 -113 -439 -206 -316 -236 -498 -594 -498 -985 0 -71 3 -150 8 -175 4 -25
10 -58 13 -75 33 -209 160 -447 332 -621 183 -186 381 -294 640 -350 82 -18
307 -27 380 -14 28 4 71 11 97 14 100 13 276 81 393 150 203 120 388 326 491
544 39 85 88 247 100 332 10 71 11 289 2 360 -26 196 -120 420 -248 585 -45
58 -155 169 -212 212 -75 58 -92 69 -166 110 -151 84 -331 139 -492 149 -141
10 -150 10 -153 8z m586 -761 c67 -52 124 -97 126 -98 1 -2 -10 -21 -25 -42
-28 -36 -342 -442 -367 -473 -7 -8 -84 -107 -171 -220 -87 -113 -161 -208
-165 -212 -6 -7 -86 53 -221 163 -19 16 -96 77 -170 136 -74 59 -146 118 -160
130 -14 13 -28 23 -32 23 -19 0 -4 28 49 94 32 39 60 73 63 76 3 3 23 28 44
55 22 28 43 54 46 58 4 4 76 -46 160 -113 84 -67 156 -117 161 -113 7 7 128
163 189 243 14 18 78 100 142 182 65 82 130 166 145 188 34 46 24 50 186 -77z"/>
<path d="M2326 1055 c-321 -82 -472 -458 -295 -736 177 -278 577 -304 787 -51
192 231 130 583 -130 736 -98 57 -252 79 -362 51z m214 -306 c130 -73 131
-260 3 -336 -132 -77 -296 16 -295 168 1 83 62 166 139 189 43 12 110 3 153
-21z"/>
</g>
</svg>
